<svg xmlns="http://www.w3.org/2000/svg" xmlns:xlink="http://www.w3.org/1999/xlink"><symbol id="icon-editor-contrast" viewBox="-35.422 -7.96 31.92 31.92">
  <g>
    <path class="editor-contrast-ico" d="M-19.462-3.96c6.595,0,11.96,5.365,11.96,11.96s-5.365,11.96-11.96,11.96S-31.422,14.595-31.422,8 S-26.057-3.96-19.462-3.96 M-19.462-7.96c-8.814,0-15.96,7.145-15.96,15.96c0,8.813,7.146,15.96,15.96,15.96S-3.502,16.813-3.502,8 C-3.502-0.815-10.648-7.96-19.462-7.96L-19.462-7.96z"/>
    <path class="editor-contrast-ico" d="M-19.462,16.331c4.706,0,8.52-3.813,8.52-8.52c0-4.705-3.813-8.519-8.52-8.519"/>
  </g>
</symbol><symbol id="icon-editor-crop" viewBox="0 0 48 48">
  <path class="editor-crop-ico editor-crop-ico--active" d="M34,30h4V14c0-2.21-1.79-4-4-4H18v4h16V30z M14,34V2h-4v8H2v4h8v20c0,2.21,1.79,4,4,4h20v8h4v-8h8v-4H14z"/>
</symbol><symbol id="icon-editor-diagram-fill" viewBox="22.5 69.048 253 253">
  <path d="M149,69.048c-69.864,0-126.5,56.636-126.5,126.5c0,69.864,56.636,126.5,126.5,126.5 s126.5-56.636,126.5-126.5C275.5,125.685,218.864,69.048,149,69.048z M149,306.264c-60.844,0-110.167-49.323-110.167-110.167 C38.833,135.253,88.156,85.93,149,85.93c60.843,0,110.167,49.323,110.167,110.167C259.167,256.941,209.843,306.264,149,306.264z"/>
</symbol><symbol id="icon-editor-fill" viewBox="0 0 48 43">
  <path class="editor-fill-ico" d="M33.12,17.88L15.24,0l-2.83,2.83l4.76,4.76L6.88,17.88c-1.17,1.17-1.17,3.07,0,4.24l11,11C18.46,33.71,19.23,34,20,34 s1.54-0.29,2.12-0.88l11-11C34.29,20.95,34.29,19.05,33.12,17.88z M10.41,20L20,10.42L29.59,20H10.41z M38,23c0,0-4,4.33-4,7 c0,2.21,1.79,4,4,4s4-1.79,4-4C42,27.33,38,23,38,23z"/>
  <rect class="editor-fill-ico" y="40" width="48" height="3"/>
</symbol><symbol id="logo-htmlacademy" viewBox="0 0 26.943 34.09">
  <path d="M13.62,0.017L13.472,0L0,1.412v24.661l13.472,8.017l13.43-7.99l0.042-0.026V1.412L13.62,0.017z M25.019,12.127L13.495,5.334 l-0.001-0.104L13.407,5.28l-0.088-0.056v0.109L1.925,12.118V3.147l11.547-1.212l11.547,1.212V12.127z M13.405,6.787L24.923,13.5 l-4.479,2.64l-7.093-4.221l-0.013,1.415l5.904,3.513l-0.86,0.507l-5.031-2.992l-0.013,1.415l3.827,2.275l-0.782,0.523l-3.032-1.787 l-0.013,1.413l1.852,1.091l-1.8,1.081L2.034,13.622L13.405,6.787z M1.925,15.127l11.411,6.791l0.015,1.044l-7.941-4.728L5.395,19.65 l7.979,4.796l0.017,1.076l-7.972-4.741l-0.013,1.415l8.021,4.821l0.045,0.026l8.143-4.872v-1.268l-0.011-0.148v-3.761l3.415-2.036 v10.02L13.472,31.85L1.925,24.979V15.127z"/>
</symbol><symbol id="icon-heart" viewBox="521.939 473.064 12.545 11.99">
  <g>
    <path d="M528.174,485.055c-0.212,0-0.412-0.091-0.552-0.249c-3.798-4.324-4.644-5.298-4.858-5.572l-0.004,0.0 c-0.529-0.675-0.821-1.518-0.821-2.373c0-2.095,1.704-3.799,3.799-3.799c0.934,0,1.804,0.32,2.484,0.898 c0.696-0.578,1.56-0.898,2.463-0.898c2.095,0,3.799,1.704,3.799,3.799c0,0.909-0.318,1.754-0.896,2.381l-4.86,5.561 C528.587,484.964,528.386,485.055,528.174,485.055L528.174,485.055z M523.929,478.349c0.208,0.255,2.471,2.839,4.243,4.858 l4.323-4.944c0.34-0.369,0.52-0.86,0.52-1.399c0-1.285-1.045-2.331-2.33-2.331c-0.729,0-1.421,0.344-1.9,0.943 c-0.142,0.178-0.353,0.267-0.585,0.275c-0.227-0.003-0.439-0.111-0.575-0.294c-0.441-0.587-1.129-0.925-1.887-0.925 c-1.285,0-2.33,1.046-2.33,2.331c0,0.678,0.275,1.171,0.507,1.467C523.919,478.336,523.925,478.342,523.929,478.349z"/>
  </g>
</symbol><symbol id="icon-menu-burger" viewBox="0 0 49.945 24.007">
  <g id="miu">
    <g id="editor_list_view_hambuger_menu_glyph">
      <g>
        <path id="path-1" d="M1.137,0C0.51,0,0,0.428,0,1.01v1.981c0,0.558,0.494,1.01,1.139,1.01h47.671 c0.628,0,1.138-0.428,1.138-1.01V1.01c0-0.558-0.494-1.01-1.138-1.01H1.137z M1.137,10.003C0.51,10.003,0,10.431,0,11.013v1.98 c0,0.557,0.494,1.01,1.139,1.01h47.671c0.628,0,1.138-0.428,1.138-1.01v-1.98c0-0.558-0.494-1.01-1.138-1.01H1.137z M1.137,20.005C0.51,20.005,0,20.434,0,21.016v1.981c0,0.557,0.494,1.01,1.139,1.01h47.671c0.628,0,1.138-0.428,1.138-1.01 v-1.981c0-0.558-0.494-1.011-1.138-1.011H1.137z"/>
      </g>
      <g>
        <path id="path-1_1_" d="M1.137,0C0.51,0,0,0.428,0,1.01v1.981c0,0.558,0.494,1.01,1.139,1.01h47.671 c0.628,0,1.138-0.428,1.138-1.01V1.01c0-0.558-0.494-1.01-1.138-1.01H1.137z M1.137,10.003C0.51,10.003,0,10.431,0,11.013v1.98 c0,0.557,0.494,1.01,1.139,1.01h47.671c0.628,0,1.138-0.428,1.138-1.01v-1.98c0-0.558-0.494-1.01-1.138-1.01H1.137z M1.137,20.005C0.51,20.005,0,20.434,0,21.016v1.981c0,0.557,0.494,1.01,1.139,1.01h47.671c0.628,0,1.138-0.428,1.138-1.01 v-1.981c0-0.558-0.494-1.011-1.138-1.011H1.137z"/>
      </g>
    </g>
  </g>
</symbol></svg>
